<?xml version="1.0" encoding="utf-8"?>
<svg xmlns="http://www.w3.org/2000/svg" viewBox="0 0 50 50" fill="#008400"><path d="M 20 5 C 8.960938 5 0 13.960938 0 25 C 0 36.039063 8.960938 45 20 45 C 25.492188 45 30.519531 42.78125 34.15625 39.15625 C 34.796875 42.464844 37.699219 45 41.1875 45 L 50 45 L 50 43 L 41.1875 43 C 38.335938 43 36 40.664063 36 37.8125 L 36 36 L 40.6875 36 C 41.046875 36.003906 41.382813 35.816406 41.566406 35.503906 C 41.746094 35.191406 41.746094 34.808594 41.566406 34.496094 C 41.382813 34.183594 41.046875 33.996094 40.6875 34 L 36 34 L 36 31 C 36 30.449219 35.550781 30 35 30 L 32.59375 30 C 31.421875 30 30.734375 28.988281 31.0625 27.875 L 34.9375 16.53125 C 34.976563 16.421875 35 16.304688 35 16.1875 C 35 10.894531 38.851563 7 44.6875 7 L 50 7 L 50 5 L 44.6875 5 C 39.945313 5 36.167969 7.417969 34.3125 11.03125 C 30.679688 7.367188 25.640625 5 20 5 Z M 20 7 C 21.050781 7 22.066406 7.078125 23.0625 7.25 C 23.179688 7.671875 23.539063 8 24 8 C 24.300781 8 24.566406 7.867188 24.75 7.65625 C 28.191406 8.59375 31.195313 10.503906 33.5 13.0625 C 33.320313 13.695313 33.191406 14.351563 33.125 15.03125 C 33.082031 15.023438 33.046875 15 33 15 C 32.449219 15 32 15.449219 32 16 C 32 16.4375 32.292969 16.800781 32.6875 16.9375 L 30.25 24.0625 C 30.164063 24.039063 30.09375 24 30 24 C 29.449219 24 29 24.449219 29 25 C 29 25.414063 29.265625 25.753906 29.625 25.90625 L 29.15625 27.28125 C 29.15625 27.292969 29.15625 27.300781 29.15625 27.3125 C 28.863281 28.3125 29.03125 29.324219 29.5 30.15625 C 29.207031 30.332031 29 30.636719 29 31 C 29 31.550781 29.449219 32 30 32 C 30.351563 32 30.632813 31.804688 30.8125 31.53125 C 31.328125 31.832031 31.9375 32 32.59375 32 L 34 32 L 34 34.6875 C 33.941406 34.882813 33.941406 35.085938 34 35.28125 L 34 36.34375 C 31.652344 39.226563 28.421875 41.339844 24.75 42.34375 C 24.566406 42.132813 24.300781 42 24 42 C 23.550781 42 23.1875 42.3125 23.0625 42.71875 C 22.0625 42.890625 21.046875 43 20 43 C 19.660156 43 19.332031 42.988281 19 42.96875 C 18.988281 42.632813 18.796875 42.359375 18.53125 42.1875 C 19.453125 40.980469 20 39.464844 20 37.8125 L 20 35.1875 C 20.027344 35.054688 20.027344 34.914063 20 34.78125 L 20 32 L 21.40625 32 C 22.0625 32 22.671875 31.832031 23.1875 31.53125 C 23.367188 31.804688 23.648438 32 24 32 C 24.550781 32 25 31.550781 25 31 C 25 30.636719 24.792969 30.332031 24.5 30.15625 C 24.96875 29.324219 25.136719 28.3125 24.84375 27.3125 C 24.84375 27.300781 24.84375 27.292969 24.84375 27.28125 L 24.375 25.90625 C 24.734375 25.753906 25 25.414063 25 25 C 25 24.449219 24.550781 24 24 24 C 23.90625 24 23.835938 24.039063 23.75 24.0625 L 21.28125 16.9375 C 21.6875 16.8125 22 16.449219 22 16 C 22 15.449219 21.550781 15 21 15 C 20.964844 15 20.941406 15.027344 20.90625 15.03125 C 20.609375 11.859375 19.113281 9.105469 16.75 7.3125 C 16.851563 7.292969 16.957031 7.296875 17.0625 7.28125 C 17.1875 7.6875 17.550781 8 18 8 C 18.53125 8 18.964844 7.585938 19 7.0625 C 19.332031 7.042969 19.664063 7 20 7 Z M 20 34 C 20 34.550781 20.449219 35 21 35 C 21.550781 35 22 34.550781 22 34 C 22 33.449219 21.550781 33 21 33 C 20.449219 33 20 33.449219 20 34 Z M 34 34 C 34 33.449219 33.550781 33 33 33 C 32.449219 33 32 33.449219 32 34 C 32 34.550781 32.449219 35 33 35 C 33.550781 35 34 34.550781 34 34 Z M 14.0625 8 C 14.070313 7.996094 14.085938 8.003906 14.09375 8 C 17.128906 9.441406 19 12.4375 19 16.1875 C 19 16.304688 19.023438 16.421875 19.0625 16.53125 L 22.9375 27.875 C 23.265625 28.988281 22.578125 30 21.40625 30 L 19 30 C 18.449219 30 18 30.449219 18 31 L 18 34 L 13.3125 34 C 13.269531 33.996094 13.230469 33.996094 13.1875 34 C 13.15625 34 13.125 34 13.09375 34 C 12.542969 34.058594 12.140625 34.558594 12.203125 35.109375 C 12.261719 35.660156 12.761719 36.0625 13.3125 36 L 18 36 L 18 37.8125 C 18 39.820313 16.851563 41.5 15.25 42.34375 C 7.605469 40.265625 2 33.316406 2 25 C 2 17.121094 7.027344 10.445313 14.0625 8 Z M 21 9 C 20.449219 9 20 9.449219 20 10 C 20 10.550781 20.449219 11 21 11 C 21.550781 11 22 10.550781 22 10 C 22 9.449219 21.550781 9 21 9 Z M 27 9 C 26.449219 9 26 9.449219 26 10 C 26 10.550781 26.449219 11 27 11 C 27.550781 11 28 10.550781 28 10 C 28 9.449219 27.550781 9 27 9 Z M 24 12 C 23.449219 12 23 12.449219 23 13 C 23 13.550781 23.449219 14 24 14 C 24.550781 14 25 13.550781 25 13 C 25 12.449219 24.550781 12 24 12 Z M 30 12 C 29.449219 12 29 12.449219 29 13 C 29 13.550781 29.449219 14 30 14 C 30.550781 14 31 13.550781 31 13 C 31 12.449219 30.550781 12 30 12 Z M 27 15 C 26.449219 15 26 15.449219 26 16 C 26 16.550781 26.449219 17 27 17 C 27.550781 17 28 16.550781 28 16 C 28 15.449219 27.550781 15 27 15 Z M 11 17 C 9.355469 17 8 18.355469 8 20 C 8 21.644531 9.355469 23 11 23 C 12.644531 23 14 21.644531 14 20 C 14 18.355469 12.644531 17 11 17 Z M 43 17 C 41.355469 17 40 18.355469 40 20 C 40 21.644531 41.355469 23 43 23 C 44.644531 23 46 21.644531 46 20 C 46 18.355469 44.644531 17 43 17 Z M 24 18 C 23.449219 18 23 18.449219 23 19 C 23 19.550781 23.449219 20 24 20 C 24.550781 20 25 19.550781 25 19 C 25 18.449219 24.550781 18 24 18 Z M 30 18 C 29.449219 18 29 18.449219 29 19 C 29 19.550781 29.449219 20 30 20 C 30.550781 20 31 19.550781 31 19 C 31 18.449219 30.550781 18 30 18 Z M 11 19 C 11.5625 19 12 19.4375 12 20 C 12 20.5625 11.5625 21 11 21 C 10.4375 21 10 20.5625 10 20 C 10 19.4375 10.4375 19 11 19 Z M 43 19 C 43.5625 19 44 19.4375 44 20 C 44 20.5625 43.5625 21 43 21 C 42.4375 21 42 20.5625 42 20 C 42 19.4375 42.4375 19 43 19 Z M 27 21 C 26.449219 21 26 21.449219 26 22 C 26 22.550781 26.449219 23 27 23 C 27.550781 23 28 22.550781 28 22 C 28 21.449219 27.550781 21 27 21 Z M 27 27 C 26.449219 27 26 27.449219 26 28 C 26 28.550781 26.449219 29 27 29 C 27.550781 29 28 28.550781 28 28 C 28 27.449219 27.550781 27 27 27 Z M 27 33 C 26.449219 33 26 33.449219 26 34 C 26 34.550781 26.449219 35 27 35 C 27.550781 35 28 34.550781 28 34 C 28 33.449219 27.550781 33 27 33 Z M 24 36 C 23.449219 36 23 36.449219 23 37 C 23 37.550781 23.449219 38 24 38 C 24.550781 38 25 37.550781 25 37 C 25 36.449219 24.550781 36 24 36 Z M 30 36 C 29.449219 36 29 36.449219 29 37 C 29 37.550781 29.449219 38 30 38 C 30.550781 38 31 37.550781 31 37 C 31 36.449219 30.550781 36 30 36 Z M 21 39 C 20.449219 39 20 39.449219 20 40 C 20 40.550781 20.449219 41 21 41 C 21.550781 41 22 40.550781 22 40 C 22 39.449219 21.550781 39 21 39 Z M 27 39 C 26.449219 39 26 39.449219 26 40 C 26 40.550781 26.449219 41 27 41 C 27.550781 41 28 40.550781 28 40 C 28 39.449219 27.550781 39 27 39 Z" fill="#008400"/></svg>
