<?xml version="1.0" encoding="utf-8"?>
<svg xmlns="http://www.w3.org/2000/svg" viewBox="0 0 50 50" fill="#008400"><path d="M 20 5 C 8.972656 5 0 13.972656 0 25 C 0 36.027344 8.972656 45 20 45 C 25.355469 45 30.382813 42.894531 34.125 39.15625 C 34.761719 42.476563 37.683594 45 41.1875 45 L 50 45 L 50 43 L 41.1875 43 C 38.320313 43 36 40.679688 36 37.8125 L 36 36 L 40.6875 36 C 41.242188 36 41.6875 35.554688 41.6875 35 C 41.6875 34.445313 41.242188 34 40.6875 34 L 36 34 L 36 31 C 36 30.445313 35.554688 30 35 30 L 32.59375 30 C 32.066406 30 31.617188 29.78125 31.3125 29.375 C 31 28.953125 30.890625 28.421875 31.03125 27.9375 L 34.9375 16.53125 C 34.972656 16.425781 35 16.296875 35 16.1875 C 35 10.855469 39.066406 7 44.6875 7 L 50 7 L 50 5 L 44.6875 5 C 39.929688 5 36.117188 7.3125 34.25 10.9375 C 30.449219 7.140625 25.339844 5 20 5 Z M 14.09375 8.03125 C 17.164063 9.484375 19 12.515625 19 16.1875 C 19 16.296875 19.027344 16.425781 19.0625 16.53125 L 22.9375 27.875 C 23.09375 28.398438 23 28.953125 22.6875 29.375 C 22.382813 29.78125 21.933594 30 21.40625 30 L 19 30 C 18.449219 30 18 30.445313 18 31 L 18 34 L 13.3125 34 C 12.761719 34 12.3125 34.445313 12.3125 35 C 12.3125 35.554688 12.761719 36 13.3125 36 L 18 36 L 18 37.8125 C 18 39.75 16.949219 41.460938 15.28125 42.34375 C 7.644531 40.257813 2 33.285156 2 25 C 2 17.144531 7.066406 10.484375 14.09375 8.03125 Z M 11 17 C 9.347656 17 8 18.347656 8 20 C 8 21.652344 9.347656 23 11 23 C 12.652344 23 14 21.652344 14 20 C 14 18.347656 12.652344 17 11 17 Z M 43 17 C 41.347656 17 40 18.347656 40 20 C 40 21.652344 41.347656 23 43 23 C 44.652344 23 46 21.652344 46 20 C 46 18.347656 44.652344 17 43 17 Z M 11 19 C 11.550781 19 12 19.449219 12 20 C 12 20.550781 11.550781 21 11 21 C 10.449219 21 10 20.550781 10 20 C 10 19.449219 10.449219 19 11 19 Z M 43 19 C 43.550781 19 44 19.449219 44 20 C 44 20.550781 43.550781 21 43 21 C 42.449219 21 42 20.550781 42 20 C 42 19.449219 42.449219 19 43 19 Z" fill="#008400"/></svg>
