<svg xmlns="http://www.w3.org/2000/svg" viewBox="0 0 40 40"><path fill="#ea4c89" d="M20 20A2 2 0 1 0 20 24A2 2 0 1 0 20 20Z"/><path fill="#ffb5d2" d="M20,20.5c-0.517,0-1.024-0.199-1.43-0.562C16.677,18.248,13.5,14.84,13.5,11s3.177-7.248,5.07-8.938 C18.976,1.699,19.483,1.5,20,1.5s1.024,0.199,1.43,0.562C23.323,3.752,26.5,7.16,26.5,11s-3.177,7.248-5.07,8.938 C21.024,20.301,20.517,20.5,20,20.5z"/><path fill="#ea4c89" d="M20,2c0.399,0,0.778,0.15,1.097,0.434C22.928,4.069,26,7.355,26,11s-3.072,6.931-4.903,8.566 C20.778,19.85,20.399,20,20,20s-0.778-0.15-1.097-0.434C17.072,17.931,14,14.645,14,11s3.072-6.931,4.903-8.566 C19.222,2.15,19.601,2,20,2 M20,1c-0.624,0-1.248,0.229-1.762,0.688C16.164,3.539,13,7.016,13,11s3.164,7.461,5.238,9.312 C18.752,20.771,19.376,21,20,21s1.248-0.229,1.762-0.688C23.836,18.461,27,14.984,27,11s-3.164-7.461-5.238-9.312 C21.248,1.229,20.624,1,20,1L20,1z"/><path fill="#ffeea3" d="M20,20c0.399,0,0.778-0.15,1.097-0.434c0.216-0.193,0.451-0.411,0.695-0.648	C22.298,17.505,23,15.715,23,14.51C23,11.902,20,8,20,8s-3,3.816-3,6.51c0,2.94,1.671,4.848,1.903,5.056	C19.222,19.85,19.601,20,20,20z"/><path fill="#ffb5d2" d="M29.198,24.5c-2.882,0-5.767-1.308-7.679-2.405c-0.932-0.535-1.271-1.549-0.824-2.465 c1.034-2.117,3.306-5.821,6.906-6.839c0.684-0.193,1.424-0.291,2.2-0.291c2.882,0,5.767,1.308,7.679,2.405 c0.932,0.535,1.271,1.549,0.824,2.465c-1.034,2.117-3.306,5.821-6.906,6.839C30.715,24.402,29.975,24.5,29.198,24.5L29.198,24.5z"/><path fill="#ea4c89" d="M29.802,13c2.771,0,5.57,1.272,7.429,2.339c0.704,0.404,0.955,1.132,0.623,1.811 c-0.997,2.043-3.18,5.613-6.593,6.578C30.623,23.908,29.928,24,29.198,24c-2.771,0-5.57-1.272-7.429-2.339 c-0.704-0.404-0.955-1.132-0.623-1.811c0.997-2.043,3.18-5.613,6.593-6.578C28.377,13.092,29.072,13,29.802,13 M29.802,12 c-0.785,0-1.57,0.093-2.337,0.31c-3.74,1.057-6.084,4.777-7.219,7.101c-0.563,1.153-0.136,2.451,1.024,3.117 C23.131,23.596,26.156,25,29.198,25c0.785,0,1.57-0.093,2.337-0.31c3.74-1.057,6.084-4.777,7.219-7.101 c0.563-1.153,0.136-2.451-1.024-3.117C35.869,13.404,32.844,12,29.802,12L29.802,12z"/><path fill="#ffeea3" d="M32,18c0,0-4.294-1.63-7.158-0.719c-1.842,0.586-3.53,2.226-3.697,2.569	c-0.331,0.679-0.028,1.326,0.623,1.811c1.294,0.964,5.205,1.048,5.785,0.825C30.769,21.247,32,18,32,18z"/><path fill="#ffb5d2" d="M31.045,37.5c-2.509-0.019-7.083-0.472-9.53-3.293c-2.445-2.822-2.22-7.385-1.868-9.854 c0.155-1.091,1.039-1.854,2.149-1.854c2.525,0.019,7.1,0.472,9.547,3.293c2.445,2.822,2.22,7.385,1.868,9.854 c-0.155,1.091-1.039,1.854-2.149,1.854H31.045z"/><path fill="#ea4c89" d="M21.795,22l0.014,1c2.424,0.018,6.838,0.447,9.156,3.121c2.316,2.672,2.091,7.07,1.751,9.454 C32.596,36.414,31.916,37,31.048,37c-2.424-0.018-6.838-0.447-9.156-3.121c-2.316-2.672-2.091-7.07-1.751-9.455 C20.261,23.586,20.941,23,21.795,23V22 M21.795,22c-1.354,0-2.453,0.948-2.643,2.283c-0.386,2.706-0.558,7.316,1.985,10.251 c2.543,2.934,7.155,3.446,9.904,3.466c0.007,0,0.014,0,0.021,0c1.354,0,2.453-0.948,2.643-2.283 c0.386-2.706,0.558-7.316-1.985-10.251S24.565,22.02,21.816,22C21.809,22,21.802,22,21.795,22L21.795,22z"/><path fill="#ffeea3" d="M20.286,23.984c0.174,1.685,0.602,3.928,1.667,5.438C23.481,31.591,28,32,28,32	s0.302-4.064-1.612-6.397c-1.492-1.819-4.078-2.599-4.579-2.603l-0.014,0C21.104,23,20.544,23.394,20.286,23.984z"/><path fill="#ffb5d2" d="M8.938,37.5c-1.11,0-1.994-0.763-2.149-1.854c-0.352-2.469-0.577-7.031,1.868-9.854 c2.447-2.821,7.021-3.274,9.53-3.293c1.127,0,2.011,0.763,2.166,1.854c0.352,2.469,0.577,7.031-1.868,9.854 c-2.447,2.821-7.021,3.274-9.53,3.293H8.938z"/><path fill="#ea4c89" d="M18.205,22v1c0.854,0,1.534,0.586,1.653,1.424c0.34,2.384,0.565,6.783-1.751,9.454 c-2.318,2.674-6.731,3.103-9.17,3.121c-0.854,0-1.534-0.586-1.653-1.424c-0.34-2.384-0.565-6.783,1.751-9.455 c2.318-2.674,6.731-3.103,9.156-3.121L18.205,22 M18.205,22c-0.007,0-0.014,0-0.021,0c-2.749,0.02-7.361,0.532-9.904,3.466 s-2.371,7.544-1.985,10.251C6.485,37.052,7.584,38,8.938,38c0.007,0,0.014,0,0.021,0c2.749-0.02,7.361-0.532,9.904-3.466 c2.543-2.934,2.371-7.544,1.985-10.251C20.658,22.948,19.559,22,18.205,22L18.205,22z"/><path fill="#ffeea3" d="M19.93,24.979c-0.023-0.194-0.046-0.381-0.071-0.554C19.739,23.586,19.059,23,18.205,23l-0.014,0	c-0.287,0.002-0.605,0.011-0.941,0.028c-1.248,0.568-2.637,1.408-3.61,2.603C11.978,27.674,12,32,12,32s4.792-0.434,6.549-3.392	C19.184,27.538,19.769,26.269,19.93,24.979z"/><path fill="#ffb5d2" d="M18.238,20.312c-1.806-1.612-4.436-4.457-5.086-7.796c-0.202-0.076-0.406-0.146-0.617-0.206	c-3.74-1.057-7.923,0.819-10.264,2.162c-1.161,0.666-1.587,1.964-1.024,3.117c1.135,2.325,3.479,6.045,7.219,7.101	c3.74,1.057,7.923-0.819,10.264-2.162c0.635-0.364,1.04-0.92,1.194-1.535C19.325,20.975,18.731,20.752,18.238,20.312z"/><path fill="#ea4c89" d="M18.944,20.762c-0.092,0.355-0.326,0.677-0.713,0.899C16.372,22.728,13.573,24,10.802,24	c-0.73,0-1.425-0.092-2.065-0.272c-3.413-0.964-5.595-4.535-6.593-6.578c-0.331-0.679-0.081-1.407,0.623-1.811	C4.628,14.272,7.426,13,10.198,13c0.73,0,1.424,0.092,2.064,0.272c0.427,0.121,0.835,0.282,1.224,0.477	c-0.139-0.403-0.254-0.814-0.336-1.234c-0.202-0.076-0.406-0.146-0.617-0.206C11.767,12.093,10.982,12,10.198,12	c-3.041,0-6.067,1.404-7.927,2.472c-1.161,0.666-1.587,1.964-1.024,3.117c1.135,2.325,3.479,6.045,7.219,7.101	C9.233,24.907,10.018,25,10.802,25c3.041,0,6.067-1.404,7.927-2.472c0.635-0.364,1.04-0.92,1.194-1.535	C19.589,20.983,19.259,20.904,18.944,20.762z"/><path fill="#ffeea3" d="M18.238,20.312c-0.818-0.73-1.803-1.715-2.699-2.882c-0.127-0.05-0.252-0.107-0.381-0.148	c-2.863-0.911-7.218,0.842-7.218,0.842s1.724,3.604,5.06,4.465c1.991,0.514,4.327-0.409,5.232-0.928	c0.386-0.222,0.621-0.544,0.713-0.899C18.695,20.65,18.455,20.506,18.238,20.312z"/></svg>